# xmcd
#
# Track frame offsets:
#	150
#	14673
#	28299
#	40686
#	53721
#	67281
#	81756
#	95011
#	106540
#	118962
#	135682
#	147890
#	160776
#	177779
#	198738
#	215283
#	227013
#	237133
#	251113
#	265287
#
# Disc length: 3741 seconds
#
# Revision: 0
# Processed by: cddbd v1.5.2PL0 Copyright (c) Steve Scherf et al.
# Submitted via: VUPlayer 2.49
#
DISCID=220e9b14
DTITLE=Dr. Hook - All The Best [CD 2]
DYEAR=2012
DGENRE=Rock
TTITLE0=A Little Bit More
TTITLE1=Better Love Next Time
TTITLE2=Only Sixteen
TTITLE3=Sharing The Night Together
TTITLE4=The Millionaire
TTITLE5=If Not You
TTITLE6=Years From Now
TTITLE7=All The Time In The World
TTITLE8=Making Love And Music
TTITLE9=In Over My Head
TTITLE10=I Don't Feel Much Like Smilin'
TTITLE11=What About You
TTITLE12=Dooley Jones
TTITLE13=Clyde
TTITLE14=What A Way To Go
TTITLE15=Sexy Energy (Single version)
TTITLE16=Bubblin' Up
TTITLE17=Levitate
TTITLE18=Everybody's Making It Big But Me
TTITLE19=I Got Stoned And I Missed It
EXTD=
EXTT0=
EXTT1=
EXTT2=
EXTT3=
EXTT4=
EXTT5=
EXTT6=
EXTT7=
EXTT8=
EXTT9=
EXTT10=
EXTT11=
EXTT12=
EXTT13=
EXTT14=
EXTT15=
EXTT16=
EXTT17=
EXTT18=
EXTT19=
PLAYORDER=
